<?xml version="1.0" encoding="UTF-8"?>
<svg id="Layer_3" data-name="Layer 3" xmlns="http://www.w3.org/2000/svg" viewBox="0 0 229.08 278.22">
  <defs>
    <style>
      .cls-1 {
        stroke-miterlimit: 10;
      }

      .cls-1, .cls-2, .cls-3 {
        fill: none;
        stroke-width: 6px;
      }

      .cls-1, .cls-3 {
        stroke: #a09be7;
      }

      .cls-4, .cls-5 {
        fill: #a09be7;
      }

      .cls-2 {
        stroke: #1c4473;
      }

      .cls-2, .cls-3 {
        stroke-linecap: round;
        stroke-linejoin: round;
      }

      .cls-5 {
        font-family: Roboto-SemiBold, Roboto;
        font-size: 40px;
        font-variation-settings: 'wght' 600, 'wdth' 100;
        font-weight: 600;
      }

      .cls-6 {
        fill: #1c4473;
      }
    </style>
  </defs>
  <g id="Layer_1" data-name="Layer 1">
    <g>
      <g>
        <line class="cls-3" x1="46.84" y1="80" x2="87.14" y2="80"/>
        <line class="cls-2" x1="140.15" y1="80" x2="180.46" y2="80"/>
        <path class="cls-3" d="M139.07,80h0s-1.64-5.93-5.66-12.64-14.25-9.99-20.84-9.99-18.37,4.87-22.54,14.28c-4.17,9.42-2.83,21.49-7.6,26.41s-13.94,7.56-16.7,18.93,11.18,15.2,18.48,13.57c7.3-1.64,43.38-20.27,55.3-20.42s20.8,2.68,17.22,12.86c-3.58,10.17-26.72,23.72-38.18,26.82s-21.82,3.55-21.82,3.55"/>
        <path class="cls-1" d="M112.57,53.05c-6.67,0-12.63-6.41-12.63-12.15,0-7.53,5.14-13.42,12.63-13.42,9.14,0,13.46,6.86,13.46,12.78s-5.75,12.78-13.46,12.78Z"/>
        <path class="cls-3" d="M138.14,77.21s5.02,12.25.77,17.84-9.45,6.43-14.09-1.34-12.58-11.91-15.48-12.86c-2.91-.95-5.48-.85-5.48-.85v21.87c0,3.88,3.69,12.15,12.63,14.09"/>
        <path class="cls-3" d="M81.08,117.08s5.29-15.06,22.29-15.06"/>
        <g>
          <g>
            <path class="cls-4" d="M38.56,90c5.52,0,10-4.48,10-10s-4.48-10-10-10c-5.52,0-10,4.48-10,10,0,5.52,4.48,10,10,10ZM38.56,75c2.76,0,5,2.24,5,5s-2.24,5-5,5-5-2.24-5-5,2.24-5,5-5Z"/>
            <path class="cls-4" d="M113.56,0C72.39,0,38.5,31.1,34.06,71.08c1.35-.68,2.87-1.07,4.49-1.07,2.04,0,3.93.61,5.51,1.66,4.13-34.73,33.65-61.66,69.49-61.66,30.58,0,56.56,19.61,66.09,46.94.8,2.3,3.17,3.75,5.57,3.34,1.08-.18,2.2-.28,3.34-.28.86,0,1.69.07,2.52.18C182.26,25.58,150.89,0,113.56,0Z"/>
          </g>
          <g>
            <path class="cls-6" d="M188.56,90c5.52,0,10-4.48,10-10,0-5.52-4.48-10-10-10-5.52,0-10,4.48-10,10,0,5.52,4.48,10,10,10ZM188.56,75c2.76,0,5,2.24,5,5s-2.24,5-5,5c-2.76,0-5-2.24-5-5,0-2.76,2.24-5,5-5Z"/>
            <path class="cls-6" d="M188.56,90c-2.04,0-3.93-.61-5.51-1.66-4.13,34.73-33.65,61.66-69.49,61.66-30.58,0-56.56-19.61-66.09-46.94-.8-2.3-3.17-3.75-5.57-3.34-1.08.18-2.2.28-3.34.28-.86,0-1.69-.07-2.52-.18,8.82,34.59,40.18,60.18,77.52,60.18,41.16,0,75.05-31.1,79.49-71.08-1.35.68-2.87,1.07-4.49,1.08Z"/>
          </g>
        </g>
      </g>
      <text class="cls-5" transform="translate(0 219.38)"><tspan x="0" y="0">Meditation &amp;</tspan><tspan x="3.57" y="48">mindfulness</tspan></text>
    </g>
  </g>
</svg>